<svg width="185" height="41" viewBox="0 0 185 41" fill="none" xmlns="http://www.w3.org/2000/svg">
<path d="M8.86667 31.2C7.06667 31.2 5.36667 30.8555 3.76667 30.1666C2.18889 29.4778 0.933333 28.6444 -5.36442e-07 27.6666L1.5 21.5333C2.23333 22.8666 3.28889 24 4.66667 24.9333C6.04444 25.8444 7.51111 26.3 9.06667 26.3C10.3778 26.3 11.4222 25.9333 12.2 25.2C12.9778 24.4444 13.3667 23.5222 13.3667 22.4333C13.3667 21.5666 13.1667 20.8555 12.7667 20.3C12.3667 19.7444 11.9 19.3 11.3667 18.9666C10.8333 18.6111 10.3778 18.3444 10 18.1666L6.43333 16.3666C5.52222 15.9 4.61111 15.3444 3.7 14.7C2.78889 14.0333 2.02222 13.1889 1.4 12.1666C0.8 11.1222 0.5 9.83331 0.5 8.29998C0.5 6.65553 0.877777 5.21109 1.63333 3.96664C2.38889 2.7222 3.44444 1.75553 4.8 1.06664C6.17778 0.355532 7.76667 -2.38419e-05 9.56667 -2.38419e-05C11.3 -2.38419e-05 12.8444 0.288865 14.2 0.866643C15.5556 1.4222 16.6444 2.0222 17.4667 2.66664L16.0333 8.66664C15.2333 7.57775 14.2333 6.66664 13.0333 5.93331C11.8333 5.19998 10.6 4.83331 9.33333 4.83331C8.17778 4.83331 7.27778 5.14442 6.63333 5.76664C6.01111 6.36664 5.7 7.1222 5.7 8.03331C5.7 8.63331 5.83333 9.15553 6.1 9.59998C6.38889 10.0444 6.75556 10.4333 7.2 10.7666C7.66667 11.0778 8.16667 11.3666 8.7 11.6333L12.3333 13.4333C12.8889 13.7 13.5111 14.0555 14.2 14.5C14.9111 14.9444 15.6 15.5111 16.2667 16.2C16.9333 16.8666 17.4778 17.6889 17.9 18.6666C18.3444 19.6222 18.5667 20.7666 18.5667 22.1C18.5667 23.8333 18.1556 25.3889 17.3333 26.7666C16.5333 28.1222 15.4111 29.2 13.9667 30C12.5444 30.8 10.8444 31.2 8.86667 31.2ZM20.9 40.6L27.5333 27.3333L19.3 10.6H25.1L28.8 18.2666C29.1333 18.9555 29.4333 19.6 29.7 20.2C29.9667 20.8 30.2 21.4222 30.4 22.0666C30.6222 21.4222 30.8667 20.8 31.1333 20.2C31.4222 19.6 31.7444 18.9555 32.1 18.2666L35.8667 10.6H41.4333L26.5333 40.6H20.9ZM44.1875 30.6V10.6H48.8875V13.0666C49.6208 12.0666 50.5208 11.3111 51.5875 10.8C52.6542 10.2666 53.8097 9.99998 55.0542 9.99998C56.4764 9.99998 57.7986 10.3444 59.0208 11.0333C60.2653 11.7222 61.2653 12.7222 62.0208 14.0333C62.7764 15.3222 63.1542 16.9 63.1542 18.7666V30.6H57.9208V19.4666C57.9208 18.2222 57.5542 17.1222 56.8208 16.1666C56.0875 15.2111 55.0431 14.7333 53.6875 14.7333C52.5764 14.7333 51.5875 15.1222 50.7208 15.9C49.8542 16.6555 49.4208 17.8111 49.4208 19.3666V30.6H44.1875ZM76.5385 31.0666C74.7163 31.0666 73.0497 30.6 71.5385 29.6666C70.0274 28.7111 68.8163 27.4444 67.9052 25.8666C67.0163 24.2666 66.5719 22.5111 66.5719 20.6C66.5719 18.6889 67.0163 16.9444 67.9052 15.3666C68.8163 13.7666 70.0274 12.5 71.5385 11.5666C73.0497 10.6111 74.7163 10.1333 76.5385 10.1333C77.8497 10.1333 79.0608 10.3666 80.1719 10.8333C81.283 11.3 82.2274 11.9555 83.0052 12.8V10.6H87.5719V30.6H83.0052V28.4C82.2274 29.2222 81.283 29.8778 80.1719 30.3666C79.0608 30.8333 77.8497 31.0666 76.5385 31.0666ZM77.1719 26.4333C78.2385 26.4333 79.1941 26.1666 80.0385 25.6333C80.9052 25.1 81.5941 24.4 82.1052 23.5333C82.6163 22.6444 82.8719 21.6666 82.8719 20.6C82.8719 19.5333 82.6163 18.5666 82.1052 17.7C81.5941 16.8111 80.9052 16.1 80.0385 15.5666C79.1941 15.0333 78.2497 14.7666 77.2052 14.7666C76.1385 14.7666 75.1719 15.0333 74.3052 15.5666C73.4608 16.1 72.783 16.8111 72.2719 17.7C71.7608 18.5666 71.5052 19.5333 71.5052 20.6C71.5052 21.6666 71.7608 22.6444 72.2719 23.5333C72.783 24.4 73.4608 25.1 74.3052 25.6333C75.1719 26.1666 76.1274 26.4333 77.1719 26.4333ZM92.5156 40.6V10.6H97.0823V12.7333C97.8823 11.9333 98.8267 11.3 99.9156 10.8333C101.027 10.3666 102.227 10.1333 103.516 10.1333C105.382 10.1333 107.071 10.6111 108.582 11.5666C110.093 12.5 111.293 13.7555 112.182 15.3333C113.093 16.9111 113.549 18.6666 113.549 20.6C113.549 22.5111 113.093 24.2666 112.182 25.8666C111.293 27.4444 110.093 28.7111 108.582 29.6666C107.071 30.6 105.382 31.0666 103.516 31.0666C102.382 31.0666 101.327 30.8889 100.349 30.5333C99.3934 30.1778 98.5267 29.6889 97.749 29.0666V40.6H92.5156ZM102.882 26.4333C103.949 26.4333 104.905 26.1666 105.749 25.6333C106.616 25.1 107.305 24.4 107.816 23.5333C108.327 22.6444 108.582 21.6666 108.582 20.6C108.582 19.5333 108.327 18.5666 107.816 17.7C107.305 16.8111 106.616 16.1 105.749 15.5666C104.905 15.0333 103.96 14.7666 102.916 14.7666C101.849 14.7666 100.882 15.0333 100.016 15.5666C99.1712 16.1 98.4934 16.8111 97.9823 17.7C97.4712 18.5666 97.2156 19.5333 97.2156 20.6C97.2156 21.6666 97.4712 22.6444 97.9823 23.5333C98.4934 24.4 99.1712 25.1 100.016 25.6333C100.882 26.1666 101.838 26.4333 102.882 26.4333ZM118.708 30.6V14.8H114.775V10.6H118.808V3.93331H123.842V10.6H128.042V14.8H123.942V30.6H118.708ZM140.524 31.2C138.324 31.2 136.368 30.7333 134.657 29.8C132.968 28.8666 131.646 27.5889 130.691 25.9666C129.757 24.3222 129.291 22.4666 129.291 20.4C129.291 18.4222 129.746 16.6555 130.657 15.1C131.591 13.5222 132.846 12.2778 134.424 11.3666C136.002 10.4555 137.746 9.99998 139.657 9.99998C141.613 9.99998 143.357 10.4555 144.891 11.3666C146.446 12.2555 147.68 13.4666 148.591 15C149.502 16.5333 149.957 18.2778 149.957 20.2333V22.1333H137.524C136.968 22.1333 136.424 22.1 135.891 22.0333C135.357 21.9666 134.824 21.8889 134.291 21.8C134.557 23.2444 135.257 24.4333 136.391 25.3666C137.524 26.3 138.946 26.7666 140.657 26.7666C141.924 26.7666 143.068 26.5 144.091 25.9666C145.113 25.4333 145.957 24.7666 146.624 23.9666L147.824 28.8666C146.824 29.6444 145.702 30.2222 144.457 30.6C143.213 31 141.902 31.2 140.524 31.2ZM134.157 18.5666C135.291 18.3444 136.413 18.2333 137.524 18.2333H141.824C142.424 18.2333 142.991 18.2555 143.524 18.3C144.057 18.3444 144.568 18.4111 145.057 18.5C144.724 17.2111 144.068 16.1778 143.091 15.4C142.135 14.6222 140.98 14.2333 139.624 14.2333C138.291 14.2333 137.135 14.6333 136.157 15.4333C135.18 16.2333 134.513 17.2778 134.157 18.5666ZM150.268 30.6L157.201 20.1333L150.901 10.6H156.734L158.668 13.6666C158.957 14.1111 159.234 14.5778 159.501 15.0666C159.79 15.5555 160.057 16.0666 160.301 16.6C160.568 16.0666 160.834 15.5666 161.101 15.1C161.39 14.6111 161.679 14.1333 161.968 13.6666L163.868 10.6H169.634L163.301 20.1333L170.268 30.6H164.368L161.634 26.2333C161.39 25.8333 161.134 25.4222 160.868 25C160.623 24.5778 160.401 24.1555 160.201 23.7333C159.979 24.1555 159.745 24.5778 159.501 25C159.257 25.4222 159.012 25.8333 158.768 26.2333L156.034 30.6H150.268Z" fill="#35332F"/>
<path d="M179.768 31.4C178.301 31.4 177.057 30.9111 176.034 29.9333C175.057 28.9111 174.568 27.6666 174.568 26.2C174.568 24.7333 175.057 23.5111 176.034 22.5333C177.057 21.5111 178.301 21 179.768 21C181.279 21 182.523 21.5111 183.501 22.5333C184.479 23.5111 184.968 24.7333 184.968 26.2C184.968 27.6666 184.479 28.9111 183.501 29.9333C182.523 30.9111 181.279 31.4 179.768 31.4Z" fill="#1C55CF"/>
</svg>
